<?xml version="1.0" encoding="UTF-8" standalone="no"?>
<!DOCTYPE svg PUBLIC "-//W3C//DTD SVG 1.1//EN"
 "http://www.w3.org/Graphics/SVG/1.1/DTD/svg11.dtd">
<!-- Generated by graphviz version 14.1.2 (20260124.0452)
 -->
<!-- Title: G Pages: 1 -->
<svg width="661pt" height="98pt"
 viewBox="0.00 0.00 661.00 98.00" xmlns="http://www.w3.org/2000/svg" xmlns:xlink="http://www.w3.org/1999/xlink">
<g id="graph0" class="graph" transform="scale(1 1) rotate(0) translate(4 94)">
<title>G</title>
<polygon fill="white" stroke="none" points="-4,4 -4,-94 656.5,-94 656.5,4 -4,4"/>
<!-- data.aws_key_pair.key -->
<g id="node1" class="node">
<title>data.aws_key_pair.key</title>
<polygon fill="none" stroke="black" points="381.88,-90 212.12,-90 212.12,-54 381.88,-54 381.88,-90"/>
<text xml:space="preserve" text-anchor="middle" x="297" y="-67.33" font-family="sans-serif" font-size="14.00">data.aws_key_pair.key</text>
</g>
<!-- aws_instance.public_instance -->
<g id="node2" class="node">
<title>aws_instance.public_instance</title>
<polygon fill="none" stroke="black" points="652.5,-90 432.5,-90 432.5,-54 652.5,-54 652.5,-90"/>
<text xml:space="preserve" text-anchor="middle" x="542.5" y="-67.33" font-family="sans-serif" font-size="14.00">aws_instance.public_instance</text>
</g>
<!-- aws_instance.public_instance&#45;&gt;data.aws_key_pair.key -->
<g id="edge1" class="edge">
<title>aws_instance.public_instance&#45;&gt;data.aws_key_pair.key</title>
<path fill="none" stroke="black" d="M432.21,-72C419.34,-72 406.28,-72 393.61,-72"/>
<polygon fill="black" stroke="black" points="393.62,-68.5 383.62,-72 393.62,-75.5 393.62,-68.5"/>
</g>
<!-- aws_subnet.public_subnet -->
<g id="node4" class="node">
<title>aws_subnet.public_subnet</title>
<polygon fill="none" stroke="black" points="396.5,-36 197.5,-36 197.5,0 396.5,0 396.5,-36"/>
<text xml:space="preserve" text-anchor="middle" x="297" y="-13.32" font-family="sans-serif" font-size="14.00">aws_subnet.public_subnet</text>
</g>
<!-- aws_instance.public_instance&#45;&gt;aws_subnet.public_subnet -->
<g id="edge2" class="edge">
<title>aws_instance.public_instance&#45;&gt;aws_subnet.public_subnet</title>
<path fill="none" stroke="black" d="M458.38,-53.57C437.05,-48.84 413.95,-43.71 392.11,-38.87"/>
<polygon fill="black" stroke="black" points="393.15,-35.52 382.63,-36.77 391.64,-42.35 393.15,-35.52"/>
</g>
<!-- aws_subnet.private_subnet -->
<g id="node3" class="node">
<title>aws_subnet.private_subnet</title>
<polygon fill="none" stroke="black" points="645.38,-36 439.62,-36 439.62,0 645.38,0 645.38,-36"/>
<text xml:space="preserve" text-anchor="middle" x="542.5" y="-13.32" font-family="sans-serif" font-size="14.00">aws_subnet.private_subnet</text>
</g>
<!-- aws_subnet.private_subnet&#45;&gt;aws_subnet.public_subnet -->
<g id="edge3" class="edge">
<title>aws_subnet.private_subnet&#45;&gt;aws_subnet.public_subnet</title>
<path fill="none" stroke="black" d="M439.29,-18C428.97,-18 418.46,-18 408.06,-18"/>
<polygon fill="black" stroke="black" points="408.34,-14.5 398.34,-18 408.34,-21.5 408.34,-14.5"/>
</g>
<!-- aws_vpc.vpc_virginia -->
<g id="node5" class="node">
<title>aws_vpc.vpc_virginia</title>
<polygon fill="none" stroke="black" points="161.5,-36 0,-36 0,0 161.5,0 161.5,-36"/>
<text xml:space="preserve" text-anchor="middle" x="80.75" y="-13.32" font-family="sans-serif" font-size="14.00">aws_vpc.vpc_virginia</text>
</g>
<!-- aws_subnet.public_subnet&#45;&gt;aws_vpc.vpc_virginia -->
<g id="edge4" class="edge">
<title>aws_subnet.public_subnet&#45;&gt;aws_vpc.vpc_virginia</title>
<path fill="none" stroke="black" d="M197.03,-18C189.07,-18 181.06,-18 173.16,-18"/>
<polygon fill="black" stroke="black" points="173.2,-14.5 163.2,-18 173.2,-21.5 173.2,-14.5"/>
</g>
</g>
</svg>
